# xmcd CD database file
#
# Track frame offsets:
#	150
#	21861
#	34395
#	49826
#	66371
#	81160
#	94640
#	106841
#	119008
#	134518
#	147326
#	162670
#	177542
#	193777
#
# Disc length: 2851 seconds
#
# Revision: 0
# Processed by: cddbd v1.5.1PL2 Copyright (c) Steve Scherf et al.
# Submitted via: CDex 1.51
#
DISCID=d40b210e
DTITLE=Jonny Hill - Country Blue CD2
DYEAR=2005
DGENRE=Country
TTITLE0=Ruf Teddybär Eins-Vier
TTITLE1=500 Meilen von Zuhaus ( 500 miles from home )
TTITLE2=Lucille
TTITLE3=Tierra Libre
TTITLE4=(Duett mit Linda Feller) Darling
TTITLE5=Ich hab noch viele Träume
TTITLE6=Wenn ich nur fliegen könnte
TTITLE7=(Duett mit Linda Feller) Zusammensteh'n
TTITLE8=Mehr als tausend kleine Sünden
TTITLE9=Ich bin für die Liebe
TTITLE10=Bis ans Ende der Welt
TTITLE11=Lass mich sein wie ich bin
TTITLE12=Wir lieben uns
TTITLE13=Hallo Teddybär
EXTD=YEAR: 2005
EXTT0=
EXTT1=
EXTT2=
EXTT3=
EXTT4=
EXTT5=
EXTT6=
EXTT7=
EXTT8=
EXTT9=
EXTT10=
EXTT11=
EXTT12=
EXTT13=
PLAYORDER=
